<?xml version="1.0" encoding="utf-8"?>
<!-- Generator: Adobe Illustrator 19.0.0, SVG Export Plug-In . SVG Version: 6.00 Build 0)  -->
<svg version="1.1" id="Capa_1" xmlns="http://www.w3.org/2000/svg" xmlns:xlink="http://www.w3.org/1999/xlink" x="0px" y="0px"
	 viewBox="0 0 500 500" style="enable-background:new 0 0 500 500;" xml:space="preserve">
<style type="text/css">
	.st0{stroke:#000000;stroke-width:4;stroke-miterlimit:10;}
</style>
<g id="XMLID_7_">
	<path id="XMLID_9_" d="M452.2,236.4h-78.8c-0.6-38.4-5.9-75.6-15.2-108.5l51.5,0c4.2,0,7.9-3.2,8-7.5c0.1-4.4-3.4-7.9-7.7-7.9
		h-56.6c-8.2-24.7-18.7-46.5-31.2-64.1c-2.3-3.2-6.6-4.5-10.1-2.6c-4.1,2.3-5.3,7.5-2.6,11.3c10.9,15.3,20.2,34.1,27.7,55.4h-79.9
		V41.7c0-4.2-3.2-7.9-7.5-8c-4.4-0.1-7.9,3.4-7.9,7.7v71.1h-79.9c7.4-21.2,16.7-39.9,27.5-55.1c2.4-3.4,1.9-8.3-1.4-10.8
		c-3.5-2.7-8.4-1.9-11,1.6c-12.6,17.6-23.1,39.5-31.4,64.3H89.8c-4.2,0-7.9,3.2-8,7.5c-0.1,4.4,3.4,7.9,7.7,7.9h51.9
		c-9.2,32.9-14.5,70.1-15.2,108.5H47.4c-4.2,0-7.9,3.2-8,7.5c-0.1,4.4,3.4,7.9,7.7,7.9h79.1c0,2.5,0.1,5,0.2,7.6
		c0,0.5,0.1,1,0.2,1.5c2,8.6,14.9,7.6,15-0.3c-0.1-2.4,0-6.3,0-8.8h100.6v13.5c0,5.7,9.2,10.6,13.8,4.6c1.1-1.5,1.6-3.3,1.6-5.2v-13
		h100.6c-0.6,38.7-6.2,76-15.7,108.5h-40.9c-11.5,0.4-9.6,15.6,2.1,15.4h33.8c-7.5,21.3-16.8,40.1-27.7,55.4
		c-2.5,3.5-1.7,8.3,1.8,10.7c1.4,1,2.9,1.4,4.5,1.4c2.4,0,4.8-1.1,6.3-3.2c12.6-17.6,23.1-39.5,31.4-64.3h56.3c4.2,0,7.9-3.2,8-7.5
		c0.1-4.4-3.4-7.9-7.7-7.9h-51.9c9.2-32.9,14.5-70.1,15.2-108.5h79.1c4.3,0,7.8-3.6,7.7-7.9C460.1,239.6,456.5,236.4,452.2,236.4z
		 M242.1,236.4H141.6c0.6-38.7,6.2-76,15.7-108.5h84.8V236.4z M257.5,236.4V127.9h84.8c9.6,32.5,15.1,69.8,15.7,108.5H257.5z"/>
	<path id="XMLID_8_" d="M486.3,292.7c18.9-97.2-19.7-192-100.8-248.3c-27.2-18.9-58.3-31.7-90.9-37.6C214-7.6,135.3,17.5,79.2,73.5
		C33.7,119.1,8.6,179.7,8.6,244.1c0,18.9-0.3,25.7,4,43.8c2.1,5.8,16.3,6,14.4-7.6c-1.7-11.1-3-24.8-3-36.2
		c0-123.4,99.4-223.9,222.4-225.8c124.1-1.9,228.4,100.1,229.3,224.2c0.7,102-66.6,188.7-159.2,217.4c-13.9,5.1-8.9,18.3,2,14.9
		c56.2-14.6,98.4-46.6,132.9-97.9C468.6,351.5,480.5,322.8,486.3,292.7z"/>
</g>
<g id="XMLID_2_">
	<path id="XMLID_3_" class="st0" d="M284.4,416.4c-1-22.3-10.6-40.1-28.6-53.3c-3.4-2.5-7.2-4.5-10.8-6.8c0.4-0.5,0.7-0.9,1.1-1.3
		c12.4-13.8,14.6-33.2,5.4-48.5c-9.8-16.3-27.7-23.9-46-19.2c-3.8,1-7.3,2.8-10.8,4.5c-2.4,1.2-3,3.8-1.8,6c1.1,2,3.4,2.9,5.7,2
		c1.1-0.4,2.1-1,3.1-1.5c11.9-6,26.3-3.8,36.3,5.6c9.6,9,12.6,23.5,7.4,35.5c-6.3,14.6-21.3,22.1-37.2,18.7
		c-3.8-0.8-6.2,0.3-6.8,3.2c-0.6,2.9,1.1,4.8,4.9,5.7c9.7,2.3,18.9,1.2,27.9-3.2c1.1-0.5,2.7-0.7,3.7-0.3
		c17.5,7.2,29.2,19.8,35,37.9c2.9,8.9,2.7,18.2,2.6,27.4c0,4.2,0,8.4,0,12.6c-14.1,0-27.9,0-41.7,0c-3.1-27.7-20.3-56-50.3-69.9
		c22.2-23.5,16.1-57-3.6-73.7c-18.7-15.8-47.5-15.6-65.8,0.5c-19.6,17.2-24.8,50-2.9,73.4c-13.9,6.5-25.5,15.8-34.5,28.2
		c-9,12.4-14.2,26.3-15.9,41.5c-14,0-27.8,0-41.7,0c0-8.2-0.4-16.3,0.1-24.3c1.4-25.2,13.8-43,36.9-53.2c1.2-0.5,3-0.5,4.2,0.1
		c9,4.4,18.4,5.5,28.2,3.1c3.6-0.9,5.2-2.8,4.7-5.6c-0.5-2.8-3-3.7-6.5-3.4c-4.8,0.4-9.9,1-14.6,0.2c-16.6-2.9-27.5-19-25-36.3
		c2.3-16,17.8-28.2,34-26.8c5,0.4,9.6,2,14,4.3c2.9,1.5,5.5,0.7,6.7-1.6c1.3-2.4,0.3-4.9-2.4-6.5c-15.7-9-35.3-6.8-48.5,5.5
		c-13.3,12.3-17.1,31.6-9.1,47.9c2,4.2,5,7.9,7.6,11.9c-0.6,0.3-1.5,0.8-2.4,1.2c-15.6,8.4-26.8,20.8-32.6,37.5
		c-2,5.7-2.9,11.8-4.3,17.6c0,11.5,0,22.9,0,34.4c1.3,2.5,3.3,3.3,6.2,3.3c13.7-0.1,27.4,0,41.1,0c1,0,2.1,0,3.2,0
		c0,12.1,0,23.7,0,35.3c0,4.4,1.6,5.9,6,5.9c54,0,107.9,0,161.9,0c4.6,0,6.1-1.5,6.1-6.1c0-10.6,0-21.3,0-31.9c0-1,0-2.1,0-3.2
		c1.6,0,2.8,0,3.9,0c13.6,0,27.2,0,40.8,0c4.1,0,5.7-1.6,5.7-5.7C284.6,435.5,284.9,425.9,284.4,416.4z M105.9,336.4
		c-0.1-22.7,18.5-41.4,41.2-41.4c22.7,0,41.4,18.7,41.3,41.4c-0.1,22.6-18.7,41.1-41.3,41.1C124.5,377.6,106,359,105.9,336.4z
		 M224.5,482.8c-51.5,0-103.2,0-155,0c-0.1-0.4-0.2-0.7-0.2-1c0-11.4-0.5-22.8,0.2-34.1c2.1-32.7,18.6-55.6,48.4-68.8
		c0.9-0.4,2.4,0,3.3,0.5c6.4,3.8,13.2,6.2,20.7,6.9c10.9,1.1,21-1,30.4-6.6c1.9-1.1,3.5-1.5,5.6-0.4c27.1,12.7,43.3,33.7,46.4,63.5
		C225.6,456,224.5,469.3,224.5,482.8z"/>
</g>
</svg>
