<?xml version="1.0" encoding="utf-8"?>
<!-- Generator: Adobe Illustrator 19.0.0, SVG Export Plug-In . SVG Version: 6.00 Build 0)  -->
<svg version="1.1" id="Capa_1" xmlns="http://www.w3.org/2000/svg" xmlns:xlink="http://www.w3.org/1999/xlink" x="0px" y="0px"
	 viewBox="0 0 500 500" style="enable-background:new 0 0 500 500;" xml:space="preserve">
<g>
	<path d="M7.5,296.8c2.4-10.4,4-21.1,7.5-31.1c10.3-29.6,30-51.4,57.5-66.2c1.5-0.8,3.1-1.6,4.2-2.2c-4.5-7-9.8-13.6-13.4-21
		c-14.1-28.8-7.4-62.8,16-84.4c23.4-21.6,57.8-25.5,85.5-9.7c4.9,2.8,6.6,7.2,4.3,11.4c-2.2,4.2-6.8,5.5-11.8,2.8
		c-7.8-4.1-15.8-6.9-24.6-7.6c-28.5-2.5-55.9,19.1-59.8,47.2c-4.3,30.5,14.9,58.9,44.1,64c8.3,1.4,17.2,0.4,25.7-0.4
		c6.3-0.6,10.6,1,11.5,5.9c1,5.1-1.9,8.4-8.2,9.9c-17.2,4.1-33.7,2.3-49.6-5.5c-2-1-5.3-1-7.4-0.1c-40.8,18-62.6,49.4-65.1,93.8
		c-0.8,14.1-0.1,28.3-0.1,42.9c24.5,0,48.8,0,73.5,0c3-26.8,12.3-51.3,28.1-73.2c15.8-21.9,36.2-38.3,60.8-49.7
		c-38.5-41.1-29.4-98.9,5.1-129.3c32.2-28.4,83-28.8,115.9-0.9c34.7,29.5,45.6,88.4,6.4,129.9c52.9,24.5,83.2,74.4,88.7,123.2
		c24.3,0,48.7,0,73.5,0c0-7.5,0-14.8,0-22.2c0.1-16.2,0.5-32.5-4.6-48.2c-10.2-31.8-30.7-54.1-61.6-66.7c-1.8-0.7-4.7-0.4-6.5,0.5
		c-15.8,7.7-32.1,9.7-49.1,5.7c-6.8-1.6-9.7-4.9-8.7-10c1-5.1,5.2-7.1,12-5.6c28.1,6,54.5-7.2,65.6-33c9.2-21.2,3.9-46.8-13-62.6
		c-17.6-16.6-43-20.5-64-9.8c-1.8,0.9-3.6,1.9-5.5,2.6c-4.1,1.5-8.2,0-10.1-3.6c-2-3.8-1-8.5,3.2-10.6c6.2-3.1,12.5-6.3,19.1-8
		c32.3-8.3,63.9,5,81.1,33.8c16.1,26.9,12.3,61.1-9.6,85.4c-0.6,0.7-1.2,1.4-1.9,2.2c6.5,4,13.1,7.5,19.1,11.9
		c31.8,23.2,48.6,54.7,50.4,94c0.8,16.8,0.2,33.7,0.2,50.6c0,7.2-2.9,10.1-10,10.1c-24,0-47.9,0-71.9,0c-2,0-4.1,0-6.9,0
		c0,2.1,0,3.9,0,5.7c0,18.8,0,37.5,0,56.3c0,8.1-2.7,10.7-10.8,10.7c-95.1,0-190.1,0-285.2,0c-7.8,0-10.6-2.7-10.6-10.5
		c0-20.5,0-41,0-62.3c-2,0-3.8,0-5.7,0c-24.1,0-48.2-0.1-72.4,0.1c-5,0-8.5-1.5-10.8-5.9C7.5,337.2,7.5,317,7.5,296.8z M386.1,419.6
		c0-23.8,2-47.4-0.4-70.4c-5.5-52.5-34-89.6-81.8-111.9c-3.8-1.8-6.6-1.2-9.9,0.8c-16.5,9.9-34.4,13.6-53.5,11.6
		c-13.1-1.4-25.1-5.5-36.4-12.2c-1.6-1-4.3-1.6-5.9-1c-52.7,23.3-81.6,63.7-85.3,121.2c-1.3,19.9-0.3,40-0.3,60.1
		c0,0.6,0.2,1.2,0.4,1.8C204.2,419.6,295.3,419.6,386.1,419.6z M249.7,234.1c39.7,0,72.5-32.7,72.7-72.5
		c0.2-39.8-32.8-72.9-72.7-72.9c-40,0-72.9,33-72.7,72.9C177.3,201.5,210,234.1,249.7,234.1z"/>
</g>
</svg>
