<?xml version="1.0" encoding="utf-8"?>
<!-- Generator: Adobe Illustrator 19.0.0, SVG Export Plug-In . SVG Version: 6.00 Build 0)  -->
<svg version="1.1" id="Capa_1" xmlns="http://www.w3.org/2000/svg" xmlns:xlink="http://www.w3.org/1999/xlink" x="0px" y="0px"
	 viewBox="0 0 500 500" style="enable-background:new 0 0 500 500;" xml:space="preserve">
<style type="text/css">
	.st0{stroke:#000000;stroke-width:3;stroke-miterlimit:10;}
	.st1{stroke:#000000;stroke-width:5;stroke-miterlimit:10;}
	.st2{stroke:#000000;stroke-width:6;stroke-miterlimit:10;}
	.st3{stroke:#000000;stroke-width:4;stroke-miterlimit:10;}
</style>
<g id="XMLID_21_">
	<path id="XMLID_22_" class="st0" d="M377.9,426.9c-0.1-3.6-0.3-5.1-0.5-5.1c-4.5-39.9-29.3-80.7-72.5-100.7
		c32-33.9,23.2-82-5.2-106.2c-26.9-22.8-68.4-22.4-94.7,0.7c-28.2,24.8-35.7,72-4.2,105.6c-20.1,9.3-36.7,22.8-49.7,40.6
		c-12.9,17.9-20.5,37.9-23,59.8l-0.6,5.8c-0.2,4.3-0.3,7.6-0.1,7.6c0,17.4,0,34.1,0,50.9c0,6.3,2.3,8.6,8.7,8.6
		c77.7,0,155.4,0,233.1,0c6.6,0,8.8-2.2,8.8-8.8c0-15.3,0-30.7,0-46c0-1.5,0-3,0-4.7L377.9,426.9z M193.4,270.5
		c-0.2-32.6,26.7-59.6,59.4-59.6c32.7,0,59.6,27,59.4,59.6c-0.2,32.5-27,59.2-59.4,59.2C220.3,329.7,193.5,303.1,193.4,270.5z
		 M364.2,481.3c-74.2,0-148.6,0-223.2,0c-0.1-0.6-0.3-1-0.3-1.5c0-16.4-0.8-32.8,0.3-49.1c3-47,26.7-80,69.7-99.1
		c1.3-0.6,3.5,0,4.8,0.8c9.2,5.5,19.1,8.9,29.8,10c15.6,1.6,30.2-1.4,43.7-9.5c2.7-1.6,5-2.1,8.1-0.6c39,18.3,62.3,48.5,66.8,91.5
		C365.9,442.6,364.2,461.9,364.2,481.3z"/>
</g>
<g id="XMLID_16_">
	<path id="XMLID_17_" class="st1" d="M152.9,191.7c-0.1-2-0.2-2.9-0.3-2.9c-2.6-22.8-16.8-46.2-41.5-57.6c18.3-19.4,13.3-47-3-60.8
		C92.8,57.3,69,57.5,54,70.8C37.9,85,33.6,112,51.6,131.3c-11.5,5.3-21,13-28.4,23.3c-7.4,10.2-11.7,21.7-13.1,34.2l-0.3,3.3
		c-0.1,2.5-0.2,4.4-0.1,4.4c0,10,0,19.5,0,29.1c0,3.6,1.3,4.9,5,4.9c44.5,0,88.9,0,133.4,0c3.8,0,5.1-1.2,5.1-5c0-8.8,0-17.6,0-26.3
		c0-0.8,0-1.7,0-2.7L152.9,191.7z M47.3,102.2c-0.1-18.7,15.3-34.1,34-34.1c18.7,0,34.1,15.4,34,34.1c-0.1,18.6-15.4,33.9-34,33.9
		C62.7,136.1,47.4,120.8,47.3,102.2z M145.1,222.8c-42.5,0-85.1,0-127.8,0c-0.1-0.3-0.2-0.6-0.2-0.9c0-9.4-0.4-18.8,0.2-28.1
		c1.7-26.9,15.3-45.8,39.9-56.7c0.7-0.3,2,0,2.8,0.4c5.3,3.2,10.9,5.1,17,5.7c8.9,0.9,17.3-0.8,25-5.4c1.6-0.9,2.9-1.2,4.6-0.4
		c22.3,10.5,35.7,27.8,38.2,52.4C146,200.7,145.1,211.7,145.1,222.8z"/>
</g>
<g id="XMLID_11_">
	<path id="XMLID_12_" class="st1" d="M312.1,111.9c0-1.7-0.2-2.4-0.2-2.4c-2.1-18.9-13.9-38.2-34.4-47.7c15.2-16.1,11-38.9-2.5-50.3
		c-12.7-10.8-32.4-10.6-44.9,0.3c-13.3,11.8-16.9,34.1-2,50.1c-9.5,4.4-17.4,10.8-23.5,19.3c-6.1,8.5-9.7,17.9-10.9,28.3l-0.3,2.8
		c-0.1,2-0.1,3.6-0.1,3.6c0,8.2,0,16.2,0,24.1c0,3,1.1,4.1,4.1,4.1c36.8,0,73.6,0,110.5,0c3.1,0,4.2-1,4.2-4.2c0-7.3,0-14.5,0-21.8
		c0-0.7,0-1.4,0-2.2L312.1,111.9z M224.6,37.7c-0.1-15.5,12.6-28.2,28.1-28.2c15.5,0,28.2,12.8,28.2,28.2
		c-0.1,15.4-12.8,28.1-28.2,28.1C237.4,65.8,224.7,53.2,224.6,37.7z M305.6,137.7c-35.2,0-70.4,0-105.8,0c-0.1-0.3-0.1-0.5-0.1-0.7
		c0-7.8-0.4-15.5,0.1-23.3c1.4-22.3,12.7-37.9,33.1-46.9c0.6-0.3,1.7,0,2.3,0.4c4.4,2.6,9,4.2,14.1,4.7c7.4,0.8,14.3-0.7,20.7-4.5
		c1.3-0.8,2.4-1,3.8-0.3c18.5,8.7,29.5,23,31.7,43.4C306.4,119.3,305.6,128.4,305.6,137.7z"/>
</g>
<g id="XMLID_6_">
	<path id="XMLID_7_" class="st1" d="M488.9,189.6c-0.1-2-0.2-2.9-0.3-2.9c-2.5-22.6-16.6-45.7-41-57c18.1-19.2,13.1-46.4-3-60.1
		C429.5,56.7,405.9,56.9,391,70c-15.9,14.1-20.2,40.8-2.4,59.8c-11.4,5.3-20.8,12.9-28.1,23c-7.3,10.1-11.6,21.4-13,33.8l-0.3,3.3
		c-0.1,2.4-0.2,4.3-0.1,4.3c0,9.8,0,19.3,0,28.8c0,3.6,1.3,4.8,4.9,4.8c44,0,87.9,0,131.9,0c3.8,0,5-1.2,5-5c0-8.7,0-17.4,0-26
		c0-0.8,0-1.7,0-2.6L488.9,189.6z M384.5,101c-0.1-18.5,15.1-33.7,33.6-33.7c18.5,0,33.7,15.3,33.6,33.7
		c-0.1,18.4-15.3,33.5-33.6,33.5C399.7,134.5,384.6,119.5,384.5,101z M481.2,220.4c-42,0-84.1,0-126.3,0c-0.1-0.3-0.2-0.6-0.2-0.9
		c0-9.3-0.4-18.6,0.1-27.8c1.7-26.6,15.1-45.3,39.5-56.1c0.7-0.3,2,0,2.7,0.4c5.2,3.1,10.8,5,16.8,5.6c8.8,0.9,17.1-0.8,24.7-5.4
		c1.6-0.9,2.8-1.2,4.6-0.4c22.1,10.4,35.3,27.5,37.8,51.8C482.1,198.5,481.2,209.3,481.2,220.4z"/>
</g>
<path id="XMLID_5_" class="st2" d="M364.9,78.2c0.8,1.3,2.2,2,3.6,2c0.8,0,1.5-0.2,2.2-0.6c2-1.2,2.6-3.8,1.4-5.8
	c-14.4-23.6-36.7-41.5-62.8-50.3c-2.2-0.7-4.6,0.4-5.4,2.7c-0.7,2.2,0.4,4.6,2.7,5.4C330.8,39.7,351.5,56.2,364.9,78.2z"/>
<path id="XMLID_4_" class="st2" d="M197.8,23.5c-26.1,8.8-48.4,26.7-62.8,50.3c-1.2,2-0.6,4.6,1.4,5.8c0.7,0.4,1.5,0.6,2.2,0.6
	c1.4,0,2.8-0.7,3.6-2c13.4-21.9,34.1-38.5,58.3-46.7c2.2-0.7,3.4-3.2,2.7-5.4C202.4,23.9,200,22.7,197.8,23.5z"/>
<path id="XMLID_3_" class="st3" d="M127.7,344.3c-28.8-21.1-50.1-51.6-59.7-86c-0.9-3.3-4.4-5.2-7.7-4.3c-3.3,0.9-5.2,4.4-4.3,7.7
	c10.4,37.1,33.3,70,64.4,92.7c0.7,0.5,1.5,0.9,2.3,1c2.4,0.5,4.9-0.3,6.4-2.4C131.1,350.2,130.5,346.3,127.7,344.3z"/>
<path id="XMLID_2_" class="st3" d="M443.9,252.2c-3.3-0.9-6.7,1.1-7.6,4.4c-9.4,34.5-30.3,65.2-59,86.5c-2.8,2-3.3,5.9-1.3,8.7
	c1.5,2.1,4.1,2.9,6.4,2.3c0.8-0.2,1.6-0.5,2.3-1.1c30.9-23,53.4-56.1,63.6-93.3C449.2,256.5,447.3,253.1,443.9,252.2z"/>
</svg>
