<?xml version="1.0" encoding="utf-8"?>
<!-- Generator: Adobe Illustrator 19.0.0, SVG Export Plug-In . SVG Version: 6.00 Build 0)  -->
<svg version="1.1" id="Capa_1" xmlns="http://www.w3.org/2000/svg" xmlns:xlink="http://www.w3.org/1999/xlink" x="0px" y="0px"
	 viewBox="-249 251 500 500" style="enable-background:new -249 251 500 500;" xml:space="preserve">
<style type="text/css">
	.st0{stroke:#FFFFFF;stroke-width:7;stroke-miterlimit:10;}
</style>
<g>
	<path class="st0" d="M160.2,347.9c-4.5-4.5-11.7-4.5-16.1,0l-27.7,27.7c-4.5,4.5-4.5,11.7,0,16.1s11.7,4.5,16.1,0l27.7-27.7
		C164.6,359.6,164.6,352.4,160.2,347.9L160.2,347.9z"/>
	<path class="st0" d="M10.3,347.8c6.3,0,11.4-5.1,11.4-11.4v-39.2c0-6.3-5.1-11.4-11.4-11.4c-6.2,0.1-11.4,5.2-11.4,11.4v39.2
		C-1.1,342.8,4,347.8,10.3,347.8L10.3,347.8z"/>
	<path class="st0" d="M-95.8,391.8c4.5-4.5,4.5-11.7,0-16.1l-27.7-27.7c-4.5-4.5-11.7-4.5-16.1,0c-4.4,4.5-4.5,11.7,0,16.1
		l27.7,27.7C-107.3,396.2-100.1,396.2-95.8,391.8L-95.8,391.8z"/>
</g>
<path class="st0" d="M87.6,667c-3.8,0-7.5-1.5-10.2-4.2l-53.5-53.6h-210.6c-15.9,0-28.9-12.9-28.9-28.9V464.9
	c0-15.9,12.9-28.9,28.9-28.9h375.4c15.9,0,28.9,12.9,28.9,28.9v115.5c0,15.9-12.9,28.9-28.9,28.9h-37.3l-53.5,53.5
	C95.1,665.5,91.4,667,87.6,667z M-186.7,464.9v115.5H29.9c3.8,0,7.5,1.5,10.2,4.2l47.5,47.5l47.5-47.5c2.7-2.7,6.4-4.2,10.2-4.2
	h43.3V464.9H-186.7z"/>
<rect x="-143.4" y="508.2" class="st0" width="231" height="28.9"/>
<rect x="116.5" y="508.2" class="st0" width="28.9" height="28.9"/>
</svg>
