<?xml version="1.0" encoding="utf-8"?>
<!-- Generator: Adobe Illustrator 19.0.0, SVG Export Plug-In . SVG Version: 6.00 Build 0)  -->
<svg version="1.1" id="Capa_1" xmlns="http://www.w3.org/2000/svg" xmlns:xlink="http://www.w3.org/1999/xlink" x="0px" y="0px"
	 viewBox="-249 251 500 500" style="enable-background:new -249 251 500 500;" xml:space="preserve">
<style type="text/css">
	.st0{stroke:#000000;stroke-width:2;stroke-miterlimit:10;}
</style>
<g>
	<path d="M-225.4,579.3c2.2-9.7,3.7-19.7,7-29c9.6-27.6,28-47.9,53.6-61.7c1.4-0.7,2.9-1.5,3.9-2.1c-4.2-6.5-9.1-12.7-12.5-19.6
		c-13.1-26.9-6.9-58.6,14.9-78.7s53.9-23.8,79.7-9c4.6,2.6,6.2,6.7,4,10.6c-2.1,3.9-6.3,5.1-11,2.6c-7.3-3.8-14.7-6.4-22.9-7.1
		c-26.6-2.3-52.1,17.8-55.8,44c-4,28.4,13.9,54.9,41.1,59.7c7.7,1.3,16,0.4,24-0.4c5.9-0.6,9.9,0.9,10.7,5.5
		c0.9,4.8-1.8,7.8-7.6,9.2c-16,3.8-31.4,2.1-46.2-5.1c-1.9-0.9-4.9-0.9-6.9-0.1c-38,16.8-58.4,46.1-60.7,87.5
		c-0.7,13.1-0.1,26.4-0.1,40c22.8,0,45.5,0,68.5,0c2.8-25,11.5-47.8,26.2-68.2c14.7-20.4,33.8-35.7,56.7-46.3
		c-35.9-38.3-27.4-92.2,4.8-120.6c30-26.5,77.4-26.9,108.1-0.8c32.4,27.5,42.5,82.4,6,121.1c49.3,22.8,77.6,69.4,82.7,114.9
		c22.7,0,45.4,0,68.5,0c0-7,0-13.8,0-20.7c0.1-15.1,0.5-30.3-4.3-44.9c-9.5-29.6-28.6-50.4-57.4-62.2c-1.7-0.7-4.4-0.4-6.1,0.5
		c-14.7,7.2-29.9,9-45.8,5.3c-6.3-1.5-9-4.6-8.1-9.3s4.8-6.6,11.2-5.2c26.2,5.6,50.8-6.7,61.2-30.8c8.6-19.8,3.6-43.6-12.1-58.4
		c-16.4-15.5-40.1-19.1-59.7-9.1c-1.7,0.8-3.4,1.8-5.1,2.4c-3.8,1.4-7.6,0-9.4-3.4c-1.9-3.5-0.9-7.9,3-9.9
		c5.8-2.9,11.7-5.9,17.8-7.5c30.1-7.7,59.6,4.7,75.6,31.5c15,25.1,11.5,57-9,79.6c-0.6,0.7-1.1,1.3-1.8,2.1
		c6.1,3.7,12.2,7,17.8,11.1c29.6,21.6,45.3,51,47,87.6c0.7,15.7,0.2,31.4,0.2,47.2c0,6.7-2.7,9.4-9.3,9.4c-22.4,0-44.7,0-67,0
		c-1.9,0-3.8,0-6.4,0c0,2,0,3.6,0,5.3c0,17.5,0,35,0,52.5c0,7.6-2.5,10-10.1,10c-88.7,0-177.2,0-265.9,0c-7.3,0-9.9-2.5-9.9-9.8
		c0-19.1,0-38.2,0-58.1c-1.9,0-3.5,0-5.3,0c-22.5,0-44.9-0.1-67.5,0.1c-4.7,0-7.9-1.4-10.1-5.5C-225.4,617-225.4,598.1-225.4,579.3z
		 M127.6,693.8c0-22.2,1.9-44.2-0.4-65.6c-5.1-48.9-31.7-83.5-76.3-104.3c-3.5-1.7-6.2-1.1-9.2,0.7c-15.4,9.2-32.1,12.7-49.9,10.8
		c-12.2-1.3-23.4-5.1-33.9-11.4c-1.5-0.9-4-1.5-5.5-0.9c-49.1,21.7-76.1,59.4-79.5,113c-1.2,18.6-0.3,37.3-0.3,56
		c0,0.6,0.2,1.1,0.4,1.7C-42,693.8,42.9,693.8,127.6,693.8z M0.4,520.8c37,0,67.6-30.5,67.8-67.6c0.2-37.1-30.6-68-67.8-68
		c-37.3,0-68,30.8-67.8,68C-67.1,490.4-36.6,520.8,0.4,520.8z"/>
</g>
<g>
	<path class="st0" d="M115.2,316.3c-3.2-3.2-8.5-3.2-11.6,0l-20.1,20.1c-3.2,3.2-3.2,8.5,0,11.6c3.2,3.2,8.5,3.2,11.6,0l20.1-20.1
		C118.5,324.8,118.5,319.6,115.2,316.3L115.2,316.3z M115.2,316.3"/>
	<path class="st0" d="M6.5,316.2c4.6,0,8.2-3.7,8.2-8.2v-28.4c0-4.6-3.7-8.2-8.2-8.2c-4.5,0-8.2,3.7-8.2,8.2V308
		C-1.7,312.6,1.9,316.2,6.5,316.2L6.5,316.2z M6.5,316.2"/>
	<path class="st0" d="M-70.4,348.2c3.2-3.3,3.2-8.5,0-11.6l-20.1-20.1c-3.2-3.3-8.5-3.3-11.6,0c-3.2,3.2-3.2,8.5,0,11.6l20.1,20.1
		C-78.8,351.3-73.6,351.3-70.4,348.2L-70.4,348.2z M-70.4,348.2"/>
</g>
</svg>
