<?xml version="1.0" encoding="utf-8"?>
<!-- Generator: Adobe Illustrator 19.0.0, SVG Export Plug-In . SVG Version: 6.00 Build 0)  -->
<svg version="1.1" id="Capa_1" xmlns="http://www.w3.org/2000/svg" xmlns:xlink="http://www.w3.org/1999/xlink" x="0px" y="0px"
	 viewBox="-249 251 500 500" style="enable-background:new -249 251 500 500;" xml:space="preserve">
<style type="text/css">
	.st0{stroke:#000000;stroke-width:4;stroke-miterlimit:10;}
</style>
<g id="XMLID_13_">
	<path id="XMLID_14_" class="st0" d="M-168.6,649.3c1.7-7.3,2.8-14.8,5.2-21.8c7.2-20.7,21-36,40.3-46.3c1-0.6,2.1-1.1,2.9-1.5
		c-3.2-4.9-6.9-9.5-9.4-14.7c-9.9-20.2-5.2-44,11.3-59.1c16.4-15.1,40.5-17.9,59.9-6.8c3.4,2,4.6,5.1,3,8c-1.5,2.9-4.7,3.9-8.2,2
		c-5.4-2.8-11.1-4.8-17.3-5.3c-19.9-1.7-39.2,13.4-41.9,33.1c-3,21.4,10.4,41.3,30.9,44.8c5.8,1,12,0.3,18-0.3
		c4.4-0.4,7.4,0.7,8.1,4.1c0.7,3.5-1.4,5.9-5.8,7c-12,2.9-23.6,1.6-34.8-3.9c-1.5-0.7-3.7-0.7-5.2-0.1
		c-28.5,12.6-43.8,34.6-45.6,65.7c-0.5,9.9-0.1,19.8-0.1,30.1c17.1,0,34.2,0,51.5,0c2.1-18.8,8.6-35.9,19.7-51.2
		c11.1-15.3,25.3-26.8,42.6-34.9c-27-28.8-20.5-69.2,3.6-90.6c22.5-19.8,58.2-20.2,81.2-0.6c24.3,20.7,31.9,61.9,4.5,91
		c37,17.2,58.3,52.1,62.1,86.3c17,0,34.1,0,51.6,0c0-5.2,0-10.4,0-15.6c0.1-11.3,0.3-22.8-3.3-33.8c-7.1-22.3-21.5-37.9-43.1-46.7
		c-1.3-0.5-3.3-0.3-4.6,0.3c-11,5.4-22.4,6.8-34.5,4c-4.7-1.1-6.8-3.4-6.1-7c0.7-3.5,3.7-5,8.4-4c19.7,4.2,38.1-5.1,46-23.1
		c6.4-14.9,2.7-32.7-9.1-43.9c-12.4-11.6-30.1-14.3-44.8-6.9c-1.3,0.7-2.6,1.4-3.9,1.8c-2.9,1.1-5.8,0-7-2.5
		c-1.4-2.7-0.7-5.9,2.2-7.4c4.3-2.1,8.8-4.4,13.4-5.6c22.6-5.8,44.8,3.5,56.8,23.6c11.3,18.8,8.6,42.8-6.7,59.9
		c-0.4,0.5-0.9,1-1.3,1.5c4.6,2.8,9.2,5.2,13.4,8.3c22.3,16.2,34,38.3,35.3,65.8c0.5,11.8,0.2,23.6,0.2,35.5c0,5.1-2,7-7,7
		c-16.8,0-33.6,0-50.3,0c-1.5,0-2.8,0-4.8,0c0,1.5,0,2.7,0,4c0,13.1,0,26.3,0,39.4c0,5.7-1.9,7.6-7.6,7.6c-66.6,0-133.2,0-199.8,0
		c-5.5,0-7.4-1.9-7.5-7.3c0-14.3,0-28.7,0-43.6c-1.5,0-2.7,0-4,0c-16.9,0-33.8-0.1-50.7,0.1c-3.4,0-6-1-7.6-4.1
		C-168.6,677.6-168.6,663.4-168.6,649.3z M96.6,735.3c0-16.7,1.4-33.2-0.3-49.3c-3.9-36.8-23.8-62.7-57.3-78.4
		c-2.7-1.3-4.6-0.9-7,0.5c-11.5,7-24.1,9.5-37.5,8.2c-9.2-0.9-17.6-3.9-25.5-8.6c-1.1-0.7-3-1.1-4.1-0.7
		c-36.9,16.3-57.2,44.6-59.8,84.9c-0.9,14-0.2,28-0.3,42.1c0,0.4,0.2,0.8,0.3,1.3C-30.8,735.3,33,735.3,96.6,735.3z M1,605.3
		c27.8,0,50.8-22.9,50.9-50.8c0.2-27.9-22.9-51-50.9-51s-51,23.1-50.9,51C-49.6,582.4-26.8,605.3,1,605.3z"/>
</g>
<path id="XMLID_12_" d="M-148.5,445.8c-1.7,0-3.4-0.7-4.6-1.9l-23.8-23.8h-17.6c-7.2,0-13.1-5.8-13.1-13.1v-52.2
	c0-7.2,5.8-13.1,13.1-13.1h169.5c7.2,0,13.1,5.8,13.1,13.1V368h-13.1v-13.1h-169.5v52.2h20.3c1.7,0,3.4,0.7,4.6,1.9l21.1,21l21-21
	c1.2-1.2,2.9-1.9,4.6-1.9h19.6v13.1h-16.8l-23.8,23.8C-145.2,445.1-146.8,445.8-148.5,445.8z"/>
<path id="XMLID_11_" d="M1,485.4c-1.7,0-3.4-0.7-4.6-1.9l-24.1-24.1h-49.5c-7.2,0-13.1-5.8-13.1-13.1v-52.2
	c0-7.2,5.8-13.1,13.1-13.1H0.9v13.1h-78.2v52.2h52.2c1.7,0,3.4,0.7,4.6,1.9L1,469.6l21.2-21.2c1.2-1.2,2.8-1.9,4.6-1.9l78.5-0.3
	c0,7.2-5.8,13.1-13.1,13.1l-62.7,0.3L5.7,483.5C4.3,484.7,2.7,485.4,1,485.4z"/>
<path id="XMLID_8_" d="M150.9,459.2c-1.7,0-3.4-0.7-4.6-1.9l-24.1-24.1h-95c-7.2,0-13.1-5.8-13.1-13.1V368c0-7.2,5.8-13.1,13.1-13.1
	h169.5c7.2,0,13.1,5.8,13.1,13.1v52.2c0,7.2-5.8,13.1-13.1,13.1h-16.8l-24.1,24.1C154.2,458.5,152.6,459.2,150.9,459.2z M27.1,368
	v52.2h97.8c1.7,0,3.4,0.7,4.6,1.9l21.5,21.5l21.5-21.5c1.2-1.2,2.9-1.9,4.6-1.9h19.6V368H27.1z"/>
<rect id="XMLID_7_" x="46.6" y="387.6" width="104.3" height="13.1"/>
<rect id="XMLID_6_" x="-31.6" y="413.6" width="26" height="13.1"/>
<rect id="XMLID_5_" x="163.9" y="387.6" width="13.1" height="13.1"/>
<rect id="XMLID_4_" x="-57.7" y="413.6" width="13.1" height="13.1"/>
<rect id="XMLID_3_" x="-122.8" y="374.5" width="13.1" height="13.1"/>
<rect id="XMLID_2_" x="-175" y="374.5" width="39.1" height="13.1"/>
<g>
	<path class="st0" d="M97.5,299.7c-2.9-2.9-7.5-2.9-10.3,0l-17.8,17.8c-2.9,2.9-2.9,7.5,0,10.3s7.5,2.9,10.3,0L97.5,310
		C100.3,307.2,100.3,302.6,97.5,299.7L97.5,299.7z"/>
	<path class="st0" d="M1.2,299.6c4,0,7.3-3.3,7.3-7.3v-25.2c0-4-3.3-7.3-7.3-7.3c-4,0.1-7.3,3.3-7.3,7.3v25.2
		C-6.1,296.4-2.8,299.6,1.2,299.6L1.2,299.6z"/>
	<path class="st0" d="M-66.9,327.9c2.9-2.9,2.9-7.5,0-10.3l-17.8-17.8c-2.9-2.9-7.5-2.9-10.3,0c-2.8,2.9-2.9,7.5,0,10.3l17.8,17.8
		C-74.3,330.7-69.7,330.7-66.9,327.9L-66.9,327.9z"/>
</g>
</svg>
